# xmcd
#
# Track frame offsets: 
#        150
#        16659
#        38535
#        54716
#        68215
#        87497
#        108895
#        129633
#        155876
#        171392
#        192933
#        208409
#
# Disc length: 3011 seconds
#
# Revision: 0
# Processed by: cddbd v1.5.2PL0 Copyright (c) Steve Scherf et al.
# Submitted via: ExactAudioCopyFreeDBPlugin 1.0
#
DISCID=aa0bc10c
DTITLE=Renato Borghetti Quarteto - Gaita Na Fábrica
DYEAR=2016
DGENRE=Brasil
TTITLE0=Milonga de La Puteada
TTITLE1=Festa dos Rios
TTITLE2=Santa Morena
TTITLE3=Brincando com a Dora
TTITLE4=Chama Mar
TTITLE5=Forró pra Já
TTITLE6=Outras Aguas
TTITLE7=Alfonsina y El Mar
TTITLE8=Cartão Postal
TTITLE9=Araçá
TTITLE10=Iaiai
TTITLE11=Conceição Da Barra
EXTD=
EXTT0=
EXTT1=
EXTT2=
EXTT3=
EXTT4=
EXTT5=
EXTT6=
EXTT7=
EXTT8=
EXTT9=
EXTT10=
EXTT11=
PLAYORDER=
